<svg width="63" height="26" viewBox="0 0 63 26" fill="none" xmlns="http://www.w3.org/2000/svg">
<path d="M1.65713 12.4781L1.66583 12.7219L1.89686 12.6419C2.28434 12.5087 2.77705 12.2713 2.9239 11.898C3.18421 11.2401 3.28393 9.94956 3.37909 8.70065L3.4015 8.41746C3.42575 8.09494 3.34981 7.8383 3.17322 7.65713C2.93534 7.41191 2.55928 7.34101 2.35616 7.31997L2.23401 7.30762L2.1782 7.41741C1.49655 8.72266 1.57661 10.5781 1.63563 11.9314C1.64432 12.1226 1.6521 12.3047 1.65713 12.4781L1.65713 12.4781ZM2.44217 7.69746C2.58856 7.72354 2.79168 7.78256 2.9152 7.90928C3.01768 8.01496 3.05886 8.17233 3.04192 8.39009L3.01951 8.67556C2.92618 9.8966 2.82919 11.1587 2.58856 11.7659C2.52771 11.92 2.32093 12.0788 2.00939 12.2137C2.00482 12.1172 2.00024 12.0175 1.99612 11.9173C1.94077 10.6432 1.86574 8.91307 2.44217 7.69753L2.44217 7.69746Z" fill="white"/>
<path d="M9.99987 12.5776C6.46487 12.5776 3.5993 15.4438 3.5993 18.9787C3.5993 22.5135 6.46452 25.3784 9.99987 25.3784C13.5344 25.3784 16.4009 22.5141 16.4009 18.9787C16.4009 15.4432 13.5343 12.5776 9.99987 12.5776ZM12.591 15.3129C12.5773 15.3142 12.4794 15.3261 12.3358 15.3613C12.1784 15.4002 11.973 15.4661 11.7538 15.5672C11.5365 15.6711 11.3105 15.8106 11.1019 15.9835C10.9972 16.0709 10.8947 16.1638 10.8009 16.2667C10.703 16.3651 10.6179 16.4781 10.5305 16.5879C10.4523 16.7045 10.3718 16.8189 10.3068 16.9429C10.2373 17.0636 10.1815 17.1913 10.1298 17.3166C10.0296 17.5691 9.96646 17.8263 9.93582 18.065C9.90745 18.3043 9.90745 18.5207 9.92072 18.6822C9.92255 18.7156 9.92575 18.7439 9.9285 18.7709C9.8617 18.6685 9.76792 18.5289 9.65309 18.361C9.41154 18.0166 9.08902 17.5563 8.76512 17.0965C8.42796 16.6478 8.09171 16.1999 7.83781 15.8627C7.58529 15.5347 7.41098 15.3211 7.40366 15.3147C8.13746 14.7945 9.03004 14.4857 9.99893 14.4857C10.967 14.4862 11.8586 14.7941 12.591 15.3128V15.3129ZM7.31349 15.3829C7.31074 15.3994 7.29061 15.4945 7.28146 15.6382C7.26819 15.801 7.26957 16.016 7.29793 16.2553C7.32858 16.4932 7.39217 16.7512 7.49282 17.0051C7.54131 17.1318 7.59987 17.2576 7.66849 17.3775C7.73346 17.5015 7.81352 17.6168 7.89128 17.7334C7.97866 17.845 8.06192 17.9562 8.15937 18.0559C8.2527 18.1598 8.35609 18.2522 8.45993 18.3405C8.66854 18.5134 8.89408 18.6534 9.11184 18.7554C9.33097 18.8565 9.53638 18.9233 9.69467 18.9613C9.72533 18.9691 9.75369 18.975 9.78114 18.9805C9.66311 19.0125 9.49979 19.0587 9.30627 19.115C8.90278 19.239 8.3657 19.4041 7.82957 19.5693C7.29843 19.7509 6.76776 19.9334 6.3688 20.0702C5.97216 20.2125 5.70957 20.3136 5.70957 20.3136L5.71552 20.3314C5.58102 19.9037 5.50691 19.4485 5.50691 18.9777C5.50737 17.5046 6.21966 16.2017 7.31353 15.3829L7.31349 15.3829ZM5.74848 20.4198C5.76037 20.4275 5.84546 20.476 5.98408 20.5328C6.13276 20.5932 6.33908 20.6595 6.5756 20.7057C6.8112 20.7501 7.07608 20.7697 7.34691 20.7528C7.48279 20.745 7.62094 20.7299 7.75681 20.7016C7.89497 20.6773 8.02947 20.6375 8.16397 20.5991C8.29573 20.5506 8.42885 20.5053 8.55466 20.4445C8.68138 20.3882 8.8017 20.3178 8.91652 20.2446C9.14663 20.1009 9.34884 19.9284 9.51261 19.7541C9.6773 19.5771 9.80448 19.4019 9.88911 19.2651C9.90558 19.2367 9.91976 19.2125 9.93349 19.1882C9.92846 19.3104 9.92114 19.4787 9.91565 19.6814C9.90833 20.1018 9.90009 20.6641 9.89094 21.2254C9.90009 21.7863 9.90878 22.3476 9.91565 22.7695C9.92754 23.1808 9.9431 23.4534 9.94401 23.4685C7.99147 23.4438 6.34413 22.1776 5.74849 20.4199L5.74848 20.4198ZM10.057 23.4674C10.0657 23.4597 10.1398 23.3933 10.2354 23.2767C10.3402 23.1532 10.4669 22.9784 10.5845 22.7684C10.6993 22.5584 10.7995 22.3128 10.8672 22.0497C10.902 21.918 10.9304 21.7821 10.9454 21.6439C10.9656 21.5058 10.9683 21.3658 10.9738 21.2249C10.9692 21.0854 10.9674 20.944 10.9468 20.8058C10.9331 20.6677 10.9034 20.5318 10.87 20.4001C10.8032 20.1366 10.7025 19.8918 10.5868 19.6814C10.4688 19.47 10.342 19.2943 10.2373 19.1717C10.2171 19.1475 10.1975 19.126 10.1787 19.1049C10.2926 19.1484 10.4509 19.2074 10.6417 19.2756C11.0397 19.4128 11.5708 19.5944 12.1029 19.7765C12.6395 19.9417 13.1771 20.1059 13.5791 20.2299C13.9712 20.3452 14.2361 20.4142 14.2521 20.4179C13.6578 22.1746 12.0104 23.4418 10.057 23.4675L10.057 23.4674ZM14.2832 20.3323L14.2883 20.3144C14.2883 20.3144 14.2471 20.2175 14.1615 20.0825C14.0769 19.9452 13.9493 19.7696 13.785 19.5934C13.6199 19.4191 13.4177 19.2476 13.188 19.103C13.0741 19.0289 12.9538 18.9594 12.8266 18.9031C12.7013 18.84 12.5681 18.7942 12.4368 18.7471C12.301 18.7082 12.1678 18.6666 12.0297 18.6424C11.8938 18.6126 11.7557 18.6003 11.6198 18.5897C11.3503 18.5728 11.0845 18.5929 10.8489 18.6364C10.612 18.6835 10.4056 18.7503 10.256 18.8121C10.2263 18.8253 10.2011 18.835 10.1755 18.8468C10.251 18.7517 10.3558 18.6199 10.4807 18.4598C10.7332 18.1227 11.0708 17.6734 11.408 17.2237C11.7305 16.7653 12.0535 16.3055 12.2959 15.9606C12.5229 15.6289 12.6683 15.4006 12.6821 15.3787C13.7791 16.1971 14.4923 17.5023 14.4923 18.9781C14.4919 19.4502 14.4177 19.9049 14.2832 20.3322L14.2832 20.3323Z" fill="white"/>
<path d="M52.8429 12.5776C49.3083 12.5776 46.4418 15.4438 46.4418 18.9787C46.4418 22.5135 49.3085 25.3784 52.8429 25.3784C56.3774 25.3784 59.2439 22.5141 59.2439 18.9787C59.2439 15.4432 56.3769 12.5776 52.8429 12.5776ZM55.434 15.3129C55.4203 15.3142 55.321 15.3261 55.1788 15.3613C55.0209 15.4002 54.816 15.4661 54.5964 15.5672C54.3804 15.6711 54.1545 15.8106 53.9449 15.9835C53.8402 16.0709 53.7363 16.1638 53.6435 16.2667C53.5465 16.3651 53.4609 16.4781 53.3745 16.5879C53.2958 16.7045 53.2152 16.8189 53.1507 16.9429C53.0798 17.0636 53.024 17.1913 52.9728 17.3166C52.8726 17.5691 52.8095 17.8263 52.7788 18.065C52.7505 18.3043 52.7505 18.5207 52.7633 18.6822C52.766 18.7142 52.7683 18.7439 52.772 18.7709C52.7038 18.6685 52.6105 18.5289 52.4965 18.361C52.2545 18.0166 51.9334 17.5563 51.609 17.0965C51.2714 16.6478 50.9333 16.1999 50.6808 15.8627C50.4283 15.5347 50.254 15.3211 50.2471 15.3147C50.9795 14.7945 51.8735 14.4857 52.8415 14.4857C53.8086 14.4862 54.7021 14.7941 55.434 15.3128L55.434 15.3129ZM50.157 15.3829C50.1538 15.3994 50.1341 15.4945 50.124 15.6382C50.1117 15.801 50.113 16.016 50.1419 16.2553C50.172 16.4932 50.2361 16.7512 50.3354 17.0051C50.3852 17.1318 50.4424 17.2576 50.511 17.3775C50.576 17.5015 50.6565 17.6168 50.7348 17.7334C50.8221 17.845 50.9045 17.9562 51.0028 18.0559C51.0952 18.1598 51.1991 18.2522 51.3034 18.3405C51.5111 18.5134 51.738 18.6534 51.9558 18.7554C52.174 18.8565 52.3794 18.9233 52.5377 18.9613C52.5697 18.9691 52.5981 18.975 52.6242 18.9805C52.5066 19.0125 52.3442 19.0587 52.1493 19.115C51.7467 19.239 51.2101 19.4041 50.6734 19.5693C50.1414 19.7509 49.6102 19.9334 49.2118 20.0702C48.8152 20.2125 48.5535 20.3136 48.5535 20.3136L48.5594 20.3314C48.4245 19.9051 48.3518 19.4485 48.3518 18.9777C48.3513 17.5046 49.0631 16.2017 50.157 15.3829L50.157 15.3829ZM48.5915 20.4198C48.6025 20.4275 48.688 20.476 48.8271 20.5328C48.9767 20.5932 49.1825 20.6595 49.4181 20.7057C49.6537 20.7501 49.9186 20.7697 50.1899 20.7528C50.3258 20.745 50.4639 20.7299 50.5998 20.7016C50.738 20.6773 50.872 20.6375 51.007 20.5991C51.1387 20.5506 51.2718 20.5053 51.3977 20.4445C51.523 20.3882 51.6447 20.3178 51.7604 20.2446C51.9892 20.1009 52.1918 19.9284 52.3575 19.7541C52.5208 19.5771 52.648 19.4019 52.7326 19.2651C52.7495 19.2367 52.7642 19.2125 52.7779 19.1882C52.7719 19.3118 52.7642 19.4787 52.7587 19.6814C52.7523 20.1018 52.744 20.6641 52.7344 21.2254C52.7445 21.7863 52.7523 22.3476 52.7587 22.7695C52.7706 23.1808 52.787 23.4534 52.7889 23.4685C50.8354 23.4438 49.1862 22.1776 48.5915 20.4199L48.5915 20.4198ZM52.9 23.4674C52.9078 23.4597 52.9828 23.3933 53.0784 23.2767C53.1832 23.1532 53.3095 22.9784 53.4275 22.7684C53.5423 22.5584 53.6434 22.3128 53.7107 22.0497C53.745 21.918 53.7729 21.7821 53.788 21.6439C53.8081 21.5058 53.8109 21.3658 53.8164 21.2249C53.8113 21.0854 53.8104 20.944 53.7903 20.8058C53.7765 20.6677 53.7464 20.5318 53.713 20.4001C53.6453 20.1366 53.5455 19.8918 53.4298 19.6814C53.3122 19.47 53.1859 19.2943 53.0807 19.1717C53.0597 19.1475 53.04 19.126 53.0212 19.1049C53.1361 19.1484 53.2948 19.2074 53.4842 19.2756C53.8831 19.4128 54.4143 19.5944 54.945 19.7765C55.4821 19.9417 56.0201 20.1059 56.4226 20.2299C56.8142 20.3452 57.0791 20.4142 57.0947 20.4179C56.5004 22.1746 54.853 23.4418 52.9001 23.4675L52.9 23.4674ZM57.1284 20.3255L57.1312 20.315C57.1312 20.315 57.0891 20.218 57.004 20.083C56.9194 19.9458 56.7922 19.7701 56.6289 19.594C56.4637 19.4197 56.2602 19.2481 56.0319 19.1036C55.917 19.0294 55.7963 18.9599 55.6691 18.9036C55.5447 18.8405 55.4115 18.7948 55.2802 18.7476C55.1439 18.7088 55.0099 18.6671 54.8731 18.6429C54.7367 18.6131 54.599 18.6008 54.4627 18.5903C54.1923 18.5738 53.9275 18.5944 53.6923 18.6374C53.4563 18.6845 53.249 18.7513 53.0994 18.8131C53.0692 18.8263 53.0436 18.8359 53.0189 18.8478C53.0958 18.7527 53.1987 18.6209 53.3231 18.4608C53.5761 18.1236 53.9142 17.6744 54.2504 17.2247C54.573 16.7663 54.896 16.3065 55.1384 15.9616C55.3658 15.6299 55.5122 15.4007 55.5254 15.3796C56.622 16.1981 57.3357 17.5033 57.3357 18.9791C57.3348 19.4475 57.2616 19.8995 57.1285 20.3254L57.1284 20.3255Z" fill="white"/>
<path d="M61.9544 14.0602L61.8547 13.9321L61.8848 13.772C61.9041 13.6672 62.3204 11.1643 59.5604 10.3536C56.4916 9.45058 48.3255 7.8393 48.2451 7.8229L48.1499 7.80369L48.0785 7.74056C48.0031 7.67514 40.413 1.16701 33.226 0.362785C31.075 0.122149 28.5355 0 25.6786 0C19.6243 0 12.9962 0.554925 8.79176 1.41264C8.7236 1.42499 7.27887 1.68438 5.58071 1.68438C5.13147 1.68438 4.70143 1.66517 4.30158 1.62948C4.75128 1.88841 5.42653 2.21734 6.05467 2.46758L6.5675 2.67299L6.1727 3.06048C6.14983 3.08335 3.96309 5.23717 2.76536 6.8461C3.03024 6.91289 3.32531 7.03778 3.56092 7.27887C3.75946 7.48337 3.98729 7.85393 3.94017 8.45869L3.91867 8.74142C3.81574 10.0896 3.71738 11.3614 3.42688 12.0965C3.11259 12.8907 2.00042 13.1981 1.64685 13.2768L0.483939 14.2403C0.415774 14.3276 -0.0773931 14.9997 0.0104431 16.5153C0.0223373 16.713 0.0305723 16.9133 0.0401793 17.1146C0.114291 18.735 0.185203 20.2657 1.44415 20.7731C1.55761 20.8188 1.82341 20.8897 2.44283 20.9867C2.26487 20.3243 2.1752 19.6509 2.1752 18.9761C2.1752 14.662 5.68548 11.1518 9.99953 11.1518C14.3136 11.1518 17.8239 14.662 17.8239 18.9761C17.8239 20.0942 17.5832 21.2027 17.1234 22.2133C18.403 22.2938 19.2164 22.34 19.2164 22.34L45.8835 22.5362C45.3167 21.4333 45.0197 20.215 45.0197 18.9762C45.0197 14.6621 48.5305 11.1519 52.8444 11.1519C57.158 11.1519 60.6678 14.6621 60.6678 18.9762C60.6678 20.1089 60.418 21.2311 59.9432 22.2581L60.3897 22.2476C60.402 22.2462 62.1958 22.1588 62.4744 20.9154L62.5119 20.7502C62.85 19.2479 63.5564 16.1187 61.9552 14.06L61.9544 14.0602ZM35.2381 1.65774L39.4598 5.53448L39.7576 7.66726L28.5859 6.84242L27.0716 0.813341C30.5585 0.612044 35.238 1.65785 35.238 1.65785L35.2381 1.65774ZM32.3702 10.2158C32.3487 10.4427 32.1465 10.6092 31.9196 10.5868L28.9963 10.3096C28.7694 10.2885 28.6029 10.0872 28.6244 9.85988C28.6454 9.63252 28.8472 9.46644 29.075 9.48795L31.9983 9.76473C32.2252 9.78714 32.3917 9.98844 32.3702 10.2158V10.2158ZM14.6531 1.45138C19.1877 0.648044 24.8238 0.831493 24.8238 0.831493L25.6496 6.5898L13.7437 5.71739L14.6531 1.45138ZM12.3547 2.71306C12.3547 2.71306 11.9768 3.95144 11.7014 4.56488C11.426 5.17882 10.5852 5.17561 10.5852 5.17561C10.5852 5.17561 8.26069 5.03791 7.20583 4.97616C6.15043 4.91531 6.73188 4.16641 7.20583 3.46186C7.67978 2.75734 8.47536 2.68185 8.47536 2.68185L11.702 2.1617C12.5296 2.02812 12.3548 2.71296 12.3548 2.71296L12.3547 2.71306ZM16.0813 9.51896L13.1558 9.271C12.9289 9.25179 12.7596 9.05278 12.7793 8.82496C12.7985 8.59805 12.9984 8.42878 13.2253 8.44799L16.1518 8.69595C16.3791 8.71516 16.548 8.91417 16.5288 9.14199C16.5091 9.36844 16.3082 9.53725 16.0813 9.51896H16.0813ZM44.5273 14.7378C44.4482 14.8225 44.3841 14.9208 44.3128 15.0105C44.2405 15.1002 44.1815 15.1985 44.1202 15.2964C44.0598 15.3948 43.9944 15.4886 43.9422 15.5924C43.8274 15.7923 43.7258 15.9982 43.6302 16.2077C43.5799 16.3102 43.5406 16.4191 43.4953 16.5238C43.45 16.63 43.4065 16.7375 43.3695 16.845C43.2062 17.275 43.0726 17.716 42.9536 18.1606C42.8388 18.6039 42.7262 19.0546 42.648 19.4993L42.6192 19.6672L42.438 19.6685C40.5441 19.6818 38.651 19.6777 36.758 19.658C34.8654 19.6461 32.9723 19.6109 31.0798 19.5761L28.2411 19.5093C27.2946 19.4865 26.349 19.4636 25.4025 19.4302L22.5639 19.3346L19.7265 19.2179L19.5001 19.2074L19.4923 18.9777L19.4799 18.5811C19.4827 18.4466 19.4543 18.3149 19.4379 18.1817C19.4177 18.05 19.4049 17.9168 19.3683 17.7856L19.2727 17.3907C19.1867 17.1341 19.1098 16.8733 19.0032 16.6208C18.909 16.3642 18.785 16.1185 18.6679 15.8692C18.4181 15.3774 18.1308 14.9043 17.8161 14.4473C17.6587 14.2176 17.4936 13.9953 17.3248 13.7739C17.1564 13.552 16.9812 13.3356 16.795 13.1284C17.2035 13.5076 17.5864 13.9184 17.9373 14.3554C18.2882 14.7936 18.6162 15.252 18.9086 15.736C19.0467 15.9822 19.194 16.2251 19.3107 16.4858C19.3711 16.6149 19.4397 16.7398 19.4873 16.8756L19.6428 17.2764L19.7663 17.6876C19.8121 17.8249 19.8345 17.9685 19.8633 18.1108C19.8889 18.2545 19.9265 18.3954 19.9324 18.5409L19.9489 18.7408L22.5748 18.7435L25.4144 18.7664C26.3609 18.7728 27.3079 18.7906 28.2535 18.8076L31.0926 18.8615C32.9852 18.9073 34.8773 18.9526 36.769 19.0203C38.6067 19.0793 40.4444 19.1534 42.2803 19.2431C42.3805 18.8423 42.4935 18.4503 42.6271 18.0633C42.7799 17.6186 42.9505 17.1803 43.1491 16.7567C43.1957 16.6478 43.2474 16.5431 43.3019 16.4392C43.3563 16.3345 43.403 16.2279 43.4638 16.1263C43.5768 15.9205 43.6958 15.7178 43.8271 15.5229C43.957 15.328 44.0988 15.14 44.2566 14.9666C44.3385 14.8834 44.4113 14.7909 44.4991 14.7141L44.764 14.4858L44.5273 14.7378ZM44.4793 7.8496C43.7199 7.8496 43.1078 7.82673 42.912 7.81941L36.9268 2.2034L37.6528 2.14622C39.0047 2.68329 40.4173 3.37639 41.8488 4.20673L44.1023 5.61165C45.4276 6.4955 46.4574 7.28416 47.0325 7.74442C46.3354 7.81305 45.463 7.84965 44.4793 7.84965L44.4793 7.8496ZM59.1198 12.8289C57.8801 12.2552 54.6004 9.84653 57.8467 10.5127C61.0925 11.1769 61.1264 12.9661 61.1264 12.9661C61.1268 12.9661 60.3583 13.4035 59.1198 12.8289V12.8289Z" fill="white"/>
</svg>
