<svg width="85" height="56" viewBox="0 0 85 56" fill="none" xmlns="http://www.w3.org/2000/svg">
<path d="M0.200001 33.8C0.200001 28.2 1.8 22.9 5 17.9C8.2 12.9 12.1 8.79999 16.7 5.59999C21.3 2.19999 25.8 0.499987 30.2 0.499987C31.8 0.499987 33.3 0.999987 34.7 1.99999C36.1 2.79999 36.8 4.59999 36.8 7.39999C36.8 10.2 35.9 11.8 34.1 12.2C32.5 12.6 30.1 13.5 26.9 14.9C23.7 16.7 21.2 18.8 19.4 21.2C17.6 23.6 16.7 26.3 16.7 29.3C16.7 31.9 17.4 34 18.8 35.6C20.4 37 22.2 37.7 24.2 37.7C25.6 37.7 27 37.5 28.4 37.1C30 36.5 31.2 35.8 32 35C33.4 36 34.4 37.2 35 38.6C35.6 39.8 35.9 41.3 35.9 43.1C35.7 46.3 33.8 49.2 30.2 51.8C26.8 54.2 23 55.4 18.8 55.4C13.4 55.4 8.9 53.2 5.3 48.8C1.9 44.4 0.200001 39.4 0.200001 33.8ZM48.2 33.8C48.2 28.2 49.8 22.9 53 17.9C56.2 12.9 60.1 8.79999 64.7 5.59999C69.3 2.19999 73.8 0.499987 78.2 0.499987C79.8 0.499987 81.3 0.999987 82.7 1.99999C84.1 2.79999 84.8 4.59999 84.8 7.39999C84.8 10.2 83.9 11.8 82.1 12.2C80.5 12.6 78.1 13.5 74.9 14.9C71.7 16.7 69.2 18.8 67.4 21.2C65.6 23.6 64.7 26.3 64.7 29.3C64.7 31.9 65.4 34 66.8 35.6C68.4 37 70.2 37.7 72.2 37.7C73.6 37.7 75 37.5 76.4 37.1C78 36.5 79.2 35.8 80 35C81.4 36 82.4 37.2 83 38.6C83.6 39.8 83.9 41.3 83.9 43.1C83.7 46.3 81.8 49.2 78.2 51.8C74.8 54.2 71 55.4 66.8 55.4C61.4 55.4 56.9 53.2 53.3 48.8C49.9 44.4 48.2 39.4 48.2 33.8Z" fill="white"/>
</svg>
