<svg width="33" height="39" viewBox="0 0 33 39" fill="none" xmlns="http://www.w3.org/2000/svg">
<path d="M14.7742 0.675976C15.7532 -0.207459 17.2588 -0.227267 18.2618 0.630062C20.5248 2.56468 22.6375 3.84492 24.5903 4.47949C26.5366 5.11209 28.6072 5.59786 30.8025 5.93684C32.0682 6.1324 33 7.19604 33 8.44508V23.8094C33 26.7992 31.527 29.607 29.0404 31.3581L19.5507 38.0386C17.7296 39.3205 15.2704 39.3205 13.4493 38.0386L3.95958 31.3581C1.473 29.6074 0 26.7996 0 23.8094V8.47411C0 7.21512 0.946443 6.14638 2.22405 5.96216C4.16546 5.68214 6.22754 5.18814 8.40976 4.47906C10.5137 3.79545 12.5153 2.63513 14.4096 0.997266L14.7742 0.675976ZM17.1169 1.90289C16.7825 1.6172 16.2807 1.62372 15.9474 1.92443L15.5694 2.2583C13.4978 4.04926 11.2935 5.32718 8.95893 6.0856C6.68427 6.82479 4.52453 7.34226 2.47846 7.63734C2.05249 7.69885 1.73731 8.0551 1.73731 8.47456V23.8099C1.73731 26.2561 2.94226 28.5535 4.97695 29.9859L14.4659 36.6661C15.6801 37.5208 17.3195 37.5208 18.5337 36.6661L28.0227 29.9859C30.0574 28.5535 31.2623 26.2561 31.2623 23.8099V8.44554C31.2623 8.02919 30.9518 7.67464 30.5299 7.60948C28.2425 7.25606 26.0792 6.74847 24.0406 6.08611C21.8454 5.37303 19.5405 3.97605 17.1161 1.90343L17.1169 1.90289ZM24.9415 14.8533C25.2486 15.1642 25.2634 15.6446 24.9921 15.9717L24.9185 16.0502L14.0964 26.208C13.7862 26.4993 13.3087 26.5217 12.9726 26.2751L12.8918 26.208L8.08198 21.6933C7.73656 21.3691 7.72609 20.8332 8.05901 20.4965C8.36606 20.1855 8.858 20.1532 9.20375 20.4049L9.28691 20.4738L13.4937 24.4224L23.7136 14.8306C24.0591 14.5063 24.6089 14.5165 24.9415 14.8532L24.9415 14.8533Z" fill="white"/>
</svg>
