<svg width="34" height="38" viewBox="0 0 34 38" fill="none" xmlns="http://www.w3.org/2000/svg">
<path d="M33.8073 36.3408L25.0685 23.9207C24.8745 23.6453 24.561 23.4811 24.2263 23.4811H12.6609C12.2907 23.4855 11.2493 23.4929 10.8986 23.4815C8.89458 23.4113 6.74768 21.5122 5.99898 19.7832C5.22214 17.9865 4.99957 14.4458 4.99914 14.4462C4.99741 14.3742 4.97835 12.6825 6.21077 12.2789C8.33992 11.5811 8.86559 11.9289 9.29858 13.0282C10.1573 15.2056 13.0009 21.7714 13.1221 22.0493C13.3512 22.5798 13.9626 22.8218 14.4857 22.5877C15.0093 22.355 15.2466 21.7353 15.0166 21.2047C14.9872 21.1371 12.066 14.3935 11.2208 12.2486C10.4617 10.3242 9.11934 9.83003 7.88655 9.83093C9.40945 8.90602 10.4348 7.21999 10.4348 5.2925C10.4348 2.37417 8.0944 0 5.21742 0C2.34 0 0 2.37417 0 5.2925C0 8.11155 2.18636 10.4159 4.92732 10.5697C3.30177 11.481 2.89649 13.412 2.93373 14.5381C2.94369 14.698 3.18013 18.4868 4.10589 20.6264C5.12436 22.9812 7.91692 25.4775 10.8277 25.5795C11.2997 25.5953 12.6295 25.5804 12.6741 25.5799H23.6949L32.1241 37.5604C32.3263 37.8472 32.6441 38 32.9672 38C33.1746 38 33.385 37.9363 33.5673 37.805C34.0311 37.4677 34.1394 36.8125 33.8077 36.3408L33.8073 36.3408ZM2.06776 5.29228C2.06776 3.53164 3.47981 2.09862 5.21621 2.09862C6.95218 2.09862 8.36467 3.53074 8.36467 5.29228C8.36467 7.05293 6.95262 8.4855 5.21621 8.4855C3.48025 8.4855 2.06776 7.05338 2.06776 5.29228Z" fill="white"/>
</svg>
