<svg width="42" height="40" viewBox="0 0 42 40" fill="none" xmlns="http://www.w3.org/2000/svg">
<path d="M21.6773 17.9996C21.2458 17.9978 20.8233 18.1227 20.4652 18.3579C20.1071 18.5933 19.8293 18.9284 19.6684 19.3199L16.9805 26.1885C16.7433 26.7972 16.8158 27.4801 17.1764 28.0279C17.5367 28.5761 18.1422 28.9243 18.8075 28.9658L23.3363 29.2599C23.3825 29.2654 23.4294 29.2679 23.4762 29.267C23.9153 29.2663 24.3431 29.1317 24.6996 28.8812C25.0561 28.6308 25.3233 28.2777 25.4639 27.8713L27.3956 22.2753H27.3959C27.5697 21.7745 27.5368 21.2275 27.3047 20.7498L26.5766 19.2448H26.5769C26.4119 18.8994 26.1516 18.6062 25.8251 18.3982C25.4986 18.1902 25.1186 18.0757 24.7289 18.0681L21.6773 17.9996ZM25.3102 19.8263L26.0382 21.3313H26.0379C26.117 21.4916 26.1273 21.6764 26.066 21.8444L24.1412 27.4335V27.4332C24.0381 27.7252 23.7497 27.9152 23.4341 27.8987L18.8985 27.6043C18.6757 27.5899 18.4732 27.4729 18.3526 27.2897C18.2345 27.1052 18.2114 26.8777 18.2895 26.674L20.9775 19.8125C21.0809 19.5388 21.3512 19.3602 21.6493 19.3678L22.5174 19.3883L21.9505 21.1052H21.9502C21.8031 21.5548 21.8177 22.0404 21.9924 22.4805L22.6224 24.0472V24.0469C22.7246 24.3114 22.9839 24.4861 23.2733 24.4849C23.3598 24.4855 23.4454 24.4693 23.5251 24.4369C23.6985 24.3725 23.8379 24.2427 23.9129 24.0771C23.9879 23.9113 23.992 23.7232 23.9241 23.5546L23.3011 21.9812H23.3014C23.2373 21.8355 23.2323 21.6718 23.2873 21.5227L23.9804 19.4225L24.6944 19.4362H24.6941C24.9585 19.4417 25.1969 19.5926 25.31 19.8262L25.3102 19.8263ZM35.4526 4.68679L38.6442 4.02315V4.02345C38.8255 3.9865 38.9842 3.88053 39.0854 3.72905C39.1836 3.57665 39.2186 3.3931 39.1833 3.21597L38.6024 0.541231C38.5186 0.172611 38.1477 -0.0619393 37.7693 0.0144069L34.1996 0.760207C33.5215 0.899781 32.8818 1.17953 32.3238 1.58113L28.201 4.89909L27.4382 3.97558C27.2073 3.69614 26.7942 3.63933 26.4933 3.84548L13.3271 12.8686C12.5446 13.3576 11.9925 14.1297 11.7916 15.0159C11.591 15.9019 11.7578 16.8297 12.2559 17.5957L13.2008 19.039L8.18935 32.4749C8.05591 32.8206 8.23028 33.2069 8.58119 33.3437L9.44928 33.6858L8.62343 35.6422C8.55343 35.8089 8.55343 35.9955 8.62343 36.1623C8.69155 36.3312 8.82841 36.4652 9.00121 36.5315L9.5893 36.7709C8.60593 37.937 7.1454 38.6183 5.59959 38.6318C4.48591 38.6309 3.41847 38.1981 2.63109 37.4288C1.84364 36.6592 1.40086 35.6156 1.3999 34.5272C1.3999 34.1494 1.08648 33.843 0.699949 33.843C0.313417 33.843 0 34.1494 0 34.5272C0.0018749 35.9782 0.592453 37.369 1.64236 38.3951C2.69196 39.421 4.11498 39.9982 5.59959 40C7.70784 39.9856 9.68025 38.9799 10.8982 37.2978L11.5913 37.5782L11.591 37.5785C11.6757 37.6121 11.7657 37.6307 11.8572 37.6331C11.951 37.6328 12.0438 37.6142 12.13 37.5785C12.3003 37.5076 12.4359 37.3754 12.5081 37.2089L13.3481 35.2183L14.1671 35.5399V35.5396C14.2514 35.5726 14.342 35.5891 14.433 35.5875C14.5289 35.586 14.6236 35.5674 14.7129 35.5329C14.8858 35.4577 15.0198 35.317 15.0839 35.1429L16.1407 32.4065L24.5888 32.7143C25.3466 32.7418 26.0928 32.5286 26.7162 32.1069C27.3393 31.6851 27.8061 31.0773 28.0467 30.3746L31.2947 20.8042L31.2944 20.8045C31.5247 20.1247 31.5309 19.3914 31.3125 18.7079C31.0937 18.0244 30.6616 17.4249 30.0767 16.994L27.4519 15.0718L31.4416 9.62643V9.62612C31.6278 9.37783 31.6194 9.03761 31.4207 8.79847L30.8607 8.12108L34.6614 5.02884C34.8989 4.86423 35.1679 4.74787 35.4523 4.68679L35.4526 4.68679ZM25.9125 14.8186C25.691 15.12 25.7563 15.539 26.0594 15.7626L29.2373 18.0885C29.5885 18.3466 29.8479 18.7061 29.9785 19.1163C30.1091 19.5264 30.1044 19.9662 29.9651 20.3736L26.7175 29.9441C26.5737 30.3655 26.2944 30.7299 25.9207 30.9827C25.5472 31.2356 25.0998 31.3633 24.6455 31.3465L15.6861 31.0182C15.3855 31.0075 15.1115 31.1867 15.0074 31.4628L14.0275 34.0078L9.73684 32.325L14.6365 19.1902L14.6362 19.1899C14.7121 18.9898 14.6862 18.7663 14.5662 18.5879L13.4394 16.8572C13.1397 16.393 13.0413 15.831 13.1663 15.2959C13.2909 14.7609 13.6284 14.2961 14.1044 14.0044L26.7594 5.32989L29.9933 9.24978L25.9125 14.8186ZM41.5706 16.0705C40.8584 17.0202 39.6998 17.5492 38.4977 17.4729C37.2956 17.5493 36.1369 17.0203 35.4248 16.0705C34.8755 15.1542 34.8517 14.0252 35.362 13.0879C36.3001 11.0494 37.8187 8.36087 37.8818 8.25126C38.0165 8.04664 38.2486 7.92295 38.4977 7.92295C38.7467 7.92295 38.9789 8.04664 39.1136 8.25126C39.1767 8.36059 40.6953 11.0494 41.6334 13.0879C42.1437 14.0252 42.1199 15.1543 41.5706 16.0705H41.5706Z" fill="white"/>
</svg>
