<svg width="51" height="37" viewBox="0 0 51 37" fill="none" xmlns="http://www.w3.org/2000/svg">
<path d="M31.9017 20.1818H29.2224L32.5825 13.8458C32.72 13.5842 32.7105 13.2716 32.557 13.0199C32.4034 12.7677 32.1271 12.614 31.8295 12.614H25.9543C25.6306 12.614 25.3347 12.7964 25.1918 13.0839L20.177 23.1744C20.0477 23.436 20.0632 23.744 20.2185 23.9903C20.3738 24.2367 20.6454 24.3863 20.9395 24.3863H23.5602L21.1471 30.6912C21.0054 31.0631 21.1453 31.4819 21.4839 31.6971C21.625 31.7863 21.7845 31.8303 21.9428 31.8303C22.164 31.8303 22.3833 31.7446 22.547 31.5804L32.5073 21.6135C32.7486 21.3725 32.8192 21.0117 32.6875 20.6979C32.5547 20.3853 32.2452 20.1817 31.9019 20.1817L31.9017 20.1818ZM24.1566 27.5778L25.5861 23.8443C25.6845 23.5851 25.6489 23.2959 25.4906 23.0683C25.3311 22.8401 25.0697 22.7046 24.7904 22.7046H22.3043L26.4837 14.2957H30.4242L27.0641 20.6317C26.9266 20.8933 26.9361 21.2059 27.0896 21.4576C27.2432 21.7098 27.5195 21.8629 27.8165 21.8629H29.8656L24.1566 27.5778ZM48.4498 12.614C47.0914 12.614 45.8997 13.793 45.8997 15.1369V18.5001H44.1998V10.9324C44.1998 8.91109 42.5746 6.72792 39.9498 6.72792L32.3001 6.72851V5.04567H35.6998C37.1056 5.04567 38.25 3.9136 38.25 2.52283C38.25 1.1321 37.1057 0 35.6998 0L22.1002 0.000586562C20.6944 0.000586562 19.55 1.13266 19.55 2.52342C19.55 3.91415 20.6944 5.04625 22.1002 5.04625H25.4999V6.72969H20.4993C20.4993 6.72969 20.4133 6.72383 20.2687 6.72383C19.7552 6.72383 18.7763 6.78718 17.9972 7.20892C17.1499 7.66996 16.1207 8.80437 16.0323 8.90528L12.3848 12.6229L9.35028 12.6141C8.32514 12.6141 6.80014 13.2858 6.80014 15.137V18.5002H5.10029V15.137C5.10029 13.7462 3.95597 12.6141 2.55015 12.6141C1.14433 12.6141 0 13.7462 0 15.137V28.5916C0 29.9823 1.14433 31.1144 2.55015 31.1144C3.95597 31.1144 5.10029 29.9823 5.10029 28.5916V25.2283H6.80014V29.4328C6.80014 30.7297 8.03933 31.9556 9.35028 31.9556H11.6111L15.9731 35.2761C16.0063 35.3007 16.8038 35.8885 17.8123 36.4674C18.5979 36.9179 19.5858 37 21.2499 37H32.7436C32.7833 37 32.8236 36.9977 32.8634 36.9918C32.9375 36.9806 33.6021 36.8833 34.1476 36.6557C34.7571 36.4011 35.1318 35.882 35.2611 35.6802L38.2274 31.9549L39.986 31.9543C42.1134 31.8646 44.1999 29.8961 44.1999 27.9798V25.2276H45.8997V28.5909C45.8997 29.9347 47.0915 31.1137 48.4499 31.1137C49.8082 31.1137 51 29.9347 51 28.5909V15.1369C51 13.7931 49.8082 12.6141 48.4499 12.6141L48.4498 12.614ZM3.39992 28.591C3.39992 29.055 3.01927 29.4322 2.54968 29.4322C2.08069 29.4322 1.69943 29.0556 1.69943 28.591L1.70003 15.137C1.70003 14.6731 2.08068 14.2959 2.55027 14.2959C3.01926 14.2959 3.40051 14.6725 3.40051 15.137L3.39992 28.591ZM6.80021 23.546H5.10037V20.1827H6.80021V23.546ZM22.1002 3.36449C21.6312 3.36449 21.2499 2.98792 21.2499 2.52336C21.2499 2.05939 21.6306 1.68222 22.1002 1.68222H35.7004C36.1694 1.68222 36.5507 2.05879 36.5507 2.52336C36.5507 2.98732 36.17 3.36449 35.7004 3.36449H22.1002ZM30.6002 5.04613V6.72777H27.2005V5.04613H30.6002ZM42.4998 27.98C42.4998 28.9132 41.2215 30.2183 39.9497 30.273H37.8147C37.5538 30.273 37.3083 30.3915 37.1476 30.5932L33.8937 34.678C33.8717 34.7056 33.8462 34.7425 33.8284 34.7731C33.7662 34.8757 33.6144 35.0523 33.4875 35.1062C33.2284 35.2142 32.8567 35.2886 32.6794 35.318L21.2498 35.3186C19.7545 35.3186 19.0542 35.2353 18.666 35.0124C17.7469 34.4851 17.001 33.936 17.001 33.936L12.4185 30.4478C12.2697 30.3346 12.0876 30.273 11.8997 30.273H9.34952C8.96888 30.273 8.49928 29.8091 8.49928 29.4319L8.49988 15.1374C8.49988 14.46 8.96709 14.3069 9.34714 14.2963L12.7409 14.3057H12.7433C12.9739 14.3057 13.1927 14.2142 13.3534 14.0499L17.2778 10.0479C17.6365 9.64843 18.3699 8.9252 18.8146 8.68413C19.136 8.50991 19.6791 8.40551 20.2678 8.40551L26.3352 8.40727C26.3405 8.40727 26.3446 8.4102 26.35 8.4102H31.4503C31.4538 8.4102 31.4562 8.40844 31.4598 8.40844L39.9497 8.4102C41.5245 8.4102 42.4999 9.72059 42.4999 10.933L42.4998 27.98ZM45.8995 23.5463H44.1997V20.183H45.8995V23.5463ZM49.2998 28.5913C49.2998 28.972 48.9209 29.4325 48.4496 29.4325C47.9788 29.4325 47.5993 28.9726 47.5993 28.5913L47.5999 15.1373C47.5999 14.7566 47.9788 14.2962 48.4501 14.2962C48.9209 14.2962 49.3004 14.756 49.3004 15.1373L49.2998 28.5913Z" fill="white"/>
</svg>
