<svg width="44" height="39" viewBox="0 0 44 39" fill="none" xmlns="http://www.w3.org/2000/svg">
<path d="M6.49979 0.000169765C2.92208 0.000169765 0 2.77965 0 6.1831C0 9.26212 2.39502 11.8156 5.49987 12.2768V26.7232C2.39511 27.1844 0 29.7379 0 32.8169C0 36.2204 2.92208 38.9998 6.49979 38.9998C10.0779 38.9998 12.9999 36.2204 12.9999 32.8169C12.9999 29.7379 10.6046 27.1844 7.50007 26.7232V20.451H21.0002V26.7232C17.8954 27.1844 15.5 29.7379 15.5 32.8169C15.5 36.2204 18.422 38.9998 22.0001 38.9998C25.5782 38.9998 28.5003 36.2204 28.5003 32.8169C28.5003 29.7379 26.1049 27.1844 23 26.7232V20.451H37.5002C38.0523 20.451 38.5001 20.0251 38.5001 19.4999V12.2766C41.6049 11.8155 44 9.26195 44 6.18293C44 2.77948 41.0779 0 37.5002 0C33.9221 0 31 2.77948 31 6.18293C31 9.26195 33.3954 11.8154 36.4999 12.2766V18.5488H22.9998V12.2766C26.1045 11.8155 28.5 9.26195 28.5 6.18293C28.5 2.77948 25.5779 0 21.9998 0C18.4218 0 15.4997 2.77948 15.4997 6.18293C15.4997 9.26195 17.8951 11.8154 20.9999 12.2766V18.5488H7.4998V12.2766C10.6043 11.8155 12.9997 9.26195 12.9997 6.18293C12.9997 2.77948 10.0776 0 6.49953 0L6.49979 0.000169765ZM6.49979 1.90275C8.99705 1.90275 11 3.80772 11 6.18302C11 8.55832 8.99696 10.4636 6.49979 10.4636C4.00289 10.4636 1.99993 8.55832 1.99993 6.18302C1.99993 3.80772 4.00298 1.90275 6.49979 1.90275ZM21.9999 1.90275C24.4972 1.90275 26.4998 3.80772 26.4998 6.18302C26.4998 8.55832 24.4971 10.4636 21.9999 10.4636C19.5028 10.4636 17.5001 8.55832 17.5001 6.18302C17.5001 3.80772 19.5028 1.90275 21.9999 1.90275ZM37.5001 1.90275C39.997 1.90275 41.9999 3.80772 41.9999 6.18302C41.9999 8.55832 39.9969 10.4636 37.5001 10.4636C35.0028 10.4636 32.9999 8.55832 32.9999 6.18302C32.9999 3.80772 35.0029 1.90275 37.5001 1.90275ZM37.5001 26.6341C33.922 26.6341 30.9999 29.4136 30.9999 32.8171C30.9999 36.2205 33.922 39 37.5001 39C39.228 39 40.8044 38.3418 41.9686 37.2908C42.1929 37.1256 42.3331 36.8781 42.354 36.6091C42.3753 36.3403 42.2755 36.0756 42.0795 35.8805C41.8835 35.6858 41.6101 35.5793 41.3265 35.5872C41.0433 35.5955 40.7768 35.7176 40.5937 35.9233C39.786 36.6528 38.7058 37.0974 37.5001 37.0974C35.0029 37.0974 32.9999 35.1924 32.9999 32.8171C32.9999 30.4418 35.003 28.5365 37.5001 28.5365C39.997 28.5365 42 30.4418 42 32.8171C41.9962 33.0716 42.0998 33.3171 42.2877 33.4985C42.4757 33.6797 42.7324 33.7818 42.9999 33.7818C43.2678 33.7818 43.5242 33.6797 43.7122 33.4985C43.9001 33.3171 44.0037 33.0716 43.9999 32.8171C43.9999 29.4137 41.0778 26.6342 37.5001 26.6342L37.5001 26.6341ZM6.49979 28.5364C8.99705 28.5364 11 30.4417 11 32.817C11 35.1923 8.99696 37.0972 6.49979 37.0972C4.00289 37.0972 1.99993 35.1923 1.99993 32.817C1.99993 30.4417 4.00298 28.5364 6.49979 28.5364ZM21.9999 28.5364C24.4972 28.5364 26.4998 30.4417 26.4998 32.817C26.4998 35.1923 24.4971 37.0972 21.9999 37.0972C19.5028 37.0972 17.5001 35.1923 17.5001 32.817C17.5001 30.4417 19.5028 28.5364 21.9999 28.5364Z" fill="white"/>
</svg>
